<svg width="31" height="57" viewBox="0 0 31 57" fill="none" xmlns="http://www.w3.org/2000/svg">
<path d="M30.1054 27.8134C30.0153 27.1892 29.731 26.6092 29.2929 26.1557L5.29294 1.13489C5.02926 0.822272 4.70453 0.566886 4.33869 0.384388C3.97284 0.201889 3.57359 0.0960994 3.16543 0.073582C2.75728 0.0510646 2.34883 0.112271 1.96516 0.253419C1.58149 0.394568 1.23068 0.612676 0.934267 0.894395C0.637853 1.17611 0.402085 1.51549 0.24143 1.89169C0.0807759 2.26788 -0.00137521 2.67296 1.74137e-05 3.08207C0.00141004 3.49118 0.0863171 3.89571 0.249529 4.2708C0.412741 4.64589 0.650815 4.98364 0.949141 5.26333L22.9804 28.2199L0.949141 51.1766C0.650815 51.4562 0.412741 51.794 0.249529 52.1691C0.0863171 52.5442 0.00141004 52.9487 1.74137e-05 53.3578C-0.00137521 53.7669 0.0807759 54.1719 0.24143 54.5481C0.402085 54.9243 0.637853 55.2637 0.934267 55.5454C1.23068 55.8271 1.58149 56.0453 1.96516 56.1865C2.34883 56.3276 2.75728 56.3888 3.16543 56.3663C3.57359 56.3438 3.97284 56.238 4.33869 56.0555C4.70453 55.873 5.02926 55.6176 5.29294 55.305L29.2929 30.2842C29.6048 29.9596 29.8397 29.5691 29.9804 29.1414C30.121 28.7137 30.1637 28.2599 30.1054 27.8134Z" fill="white"/>
</svg>
