<svg width="32" height="57" viewBox="0 0 32 57" fill="none" xmlns="http://www.w3.org/2000/svg">
<path d="M31.04 27.7444C30.9498 27.1201 30.6656 26.5401 30.2275 26.0867L6.22751 1.06586C5.96383 0.753241 5.6391 0.497856 5.27326 0.315357C4.90741 0.132858 4.50816 0.0270687 4.1 0.00455126C3.69185 -0.0179661 3.28341 0.0432402 2.89973 0.184388C2.51606 0.325537 2.16525 0.543646 1.86884 0.825364C1.57242 1.10708 1.33666 1.44646 1.176 1.82265C1.01535 2.19885 0.933195 2.60393 0.934588 3.01304C0.93598 3.42215 1.02089 3.82668 1.1841 4.20177C1.34731 4.57686 1.58539 4.91461 1.88371 5.1943L23.915 28.1509L1.88371 51.1075C1.58539 51.3872 1.34731 51.725 1.1841 52.1C1.02089 52.4751 0.93598 52.8797 0.934588 53.2888C0.933195 53.6979 1.01535 54.1029 1.176 54.4791C1.33666 54.8553 1.57242 55.1947 1.86884 55.4764C2.16525 55.7581 2.51606 55.9763 2.89973 56.1174C3.28341 56.2586 3.69185 56.3198 4.1 56.2973C4.50816 56.2747 4.90741 56.169 5.27326 55.9865C5.6391 55.804 5.96383 55.5486 6.22751 55.236L30.2275 30.2151C30.5393 29.8906 30.7743 29.5001 30.9149 29.0724C31.0556 28.6447 31.0983 28.1908 31.04 27.7444Z" fill="#0D296C"/>
</svg>
